<svg width="14" height="13" viewBox="0 0 14 13" fill="none" xmlns="http://www.w3.org/2000/svg">
<g clip-path="url(#clip0_2692_24)">
<path d="M9.91437 4.88208H9.91904M9.91904 3.79658V2.44025M4.3762 11.9167H2.7522C2.56379 11.9167 2.3742 11.8918 2.20095 11.823C1.63745 11.5982 1.35104 11.3008 1.21804 11.115C1.18194 11.0636 1.16421 11.0029 1.16735 10.9415C1.17049 10.8802 1.19435 10.8213 1.23554 10.7732C1.88887 9.96725 3.4032 9.48083 4.3762 9.48083M4.37912 11.9167H6.00254C6.19154 11.9167 6.38054 11.8918 6.55379 11.823C7.11787 11.5982 7.4037 11.3008 7.53729 11.115C7.57338 11.0636 7.59112 11.0029 7.58798 10.9415C7.58484 10.8802 7.56098 10.8213 7.51979 10.7732C6.86645 9.96725 5.35212 9.48083 4.37912 9.48083M12.8334 3.67904C12.8334 5.11229 11.5267 6.27471 9.91437 6.27471C9.72459 6.27471 9.53637 6.25846 9.3497 6.22596C9.21554 6.20267 9.14904 6.19129 9.10179 6.19779C9.05512 6.20429 8.98862 6.23679 8.85679 6.30287C8.47917 6.48981 8.04456 6.55262 7.62362 6.48108C7.78345 6.298 7.89195 6.07862 7.94037 5.84354C7.96954 5.7 7.8972 5.56025 7.7887 5.45787C7.28209 4.98521 6.99697 4.34591 6.99537 3.67904C6.99537 2.24579 8.30204 1.08337 9.91437 1.08337C11.5267 1.08337 12.8334 2.24579 12.8334 3.67904ZM5.99962 6.65658C5.999 7.05519 5.82796 7.43726 5.52409 7.71882C5.22022 8.00037 4.80839 8.15837 4.37912 8.15808C4.16647 8.15837 3.95583 8.11975 3.75925 8.04445C3.56267 7.96915 3.38398 7.85863 3.23339 7.7192C3.08281 7.57977 2.96327 7.41417 2.88161 7.23185C2.79995 7.04952 2.75776 6.85405 2.75745 6.65658C2.75768 6.45907 2.79982 6.26354 2.88144 6.08115C2.96307 5.89876 3.0826 5.7331 3.23319 5.59361C3.38378 5.45413 3.56249 5.34356 3.75912 5.26822C3.95574 5.19289 4.16642 5.15426 4.37912 5.15454C4.80849 5.15425 5.22041 5.31232 5.5243 5.594C5.82818 5.87567 5.99916 6.25788 5.99962 6.65658Z" stroke="#858585" stroke-width="1.375" stroke-linecap="round" stroke-linejoin="round"/>
</g>
<defs>
<clipPath id="clip0_2692_24">
<rect width="14" height="13" fill="white"/>
</clipPath>
</defs>
</svg>
