<svg width="22" height="22" viewBox="0 0 22 22" fill="none" xmlns="http://www.w3.org/2000/svg">
<g clip-path="url(#clip0_2659_23)">
<rect width="22" height="22" fill="white"/>
<path fill-rule="evenodd" clip-rule="evenodd" d="M11 4.54663C10.8444 4.54663 10.6952 4.60844 10.5852 4.71846C10.4751 4.82848 10.4133 4.9777 10.4133 5.1333C10.4133 5.28889 10.4751 5.43811 10.5852 5.54813C10.6952 5.65815 10.8444 5.71996 11 5.71996H21.2667C21.4223 5.71996 21.5715 5.65815 21.6815 5.54813C21.7915 5.43811 21.8533 5.28889 21.8533 5.1333C21.8533 4.9777 21.7915 4.82848 21.6815 4.71846C21.5715 4.60844 21.4223 4.54663 21.2667 4.54663H11ZM11 7.47996C10.923 7.47996 10.8467 7.49514 10.7755 7.52462C10.7043 7.5541 10.6396 7.59732 10.5852 7.6518C10.5307 7.70627 10.4875 7.77095 10.458 7.84212C10.4285 7.9133 10.4133 7.98959 10.4133 8.06663C10.4133 8.14367 10.4285 8.21996 10.458 8.29114C10.4875 8.36232 10.5307 8.42699 10.5852 8.48147C10.6396 8.53594 10.7043 8.57916 10.7755 8.60864C10.8467 8.63812 10.923 8.6533 11 8.6533H21.2667C21.4223 8.6533 21.5715 8.59149 21.6815 8.48147C21.7915 8.37145 21.8533 8.22222 21.8533 8.06663C21.8533 7.91104 21.7915 7.76182 21.6815 7.6518C21.5715 7.54177 21.4223 7.47996 21.2667 7.47996H11ZM10.4133 11C10.4133 10.6773 10.6773 10.4133 11 10.4133H21.2667C21.4223 10.4133 21.5715 10.4751 21.6815 10.5851C21.7915 10.6951 21.8533 10.8444 21.8533 11C21.8533 11.1556 21.7915 11.3048 21.6815 11.4148C21.5715 11.5248 21.4223 11.5866 21.2667 11.5866H11C10.923 11.5866 10.8467 11.5715 10.7755 11.542C10.7043 11.5125 10.6396 11.4693 10.5852 11.4148C10.5307 11.3603 10.4875 11.2956 10.458 11.2245C10.4285 11.1533 10.4133 11.077 10.4133 11ZM11 13.3466C10.8444 13.3466 10.6952 13.4084 10.5852 13.5185C10.4751 13.6285 10.4133 13.7777 10.4133 13.9333C10.4133 14.0889 10.4751 14.2381 10.5852 14.3481C10.6952 14.4582 10.8444 14.52 11 14.52H21.2667C21.4223 14.52 21.5715 14.4582 21.6815 14.3481C21.7915 14.2381 21.8533 14.0889 21.8533 13.9333C21.8533 13.7777 21.7915 13.6285 21.6815 13.5185C21.5715 13.4084 21.4223 13.3466 21.2667 13.3466H11ZM10.4133 16.8666C10.4133 16.544 10.6773 16.28 11 16.28H21.2667C21.4223 16.28 21.5715 16.3418 21.6815 16.4518C21.7915 16.5618 21.8533 16.711 21.8533 16.8666C21.8533 17.0222 21.7915 17.1714 21.6815 17.2815C21.5715 17.3915 21.4223 17.4533 21.2667 17.4533H11C10.8444 17.4533 10.6952 17.3915 10.5852 17.2815C10.4751 17.1714 10.4133 17.0222 10.4133 16.8666ZM3.61549 5.1333L7.33333 8.79996H0L3.61549 5.1333Z" fill="url(#paint0_linear_2659_23)"/>
</g>
<defs>
<linearGradient id="paint0_linear_2659_23" x1="10.9267" y1="4.54663" x2="10.9267" y2="17.4533" gradientUnits="userSpaceOnUse">
<stop stop-color="#9BEC00"/>
<stop offset="1" stop-color="#06D001"/>
</linearGradient>
<clipPath id="clip0_2659_23">
<rect width="22" height="22" fill="white"/>
</clipPath>
</defs>
</svg>
