<svg width="24" height="24" viewBox="0 0 24 24" fill="none" xmlns="http://www.w3.org/2000/svg">
<path d="M21.73 8.8734L5.39671 0.706735C4.75212 0.385912 4.02426 0.271697 3.31238 0.379662C2.60051 0.487627 1.93925 0.812517 1.41876 1.31004C0.898282 1.80756 0.543906 2.45349 0.403953 3.15978C0.263999 3.86607 0.345279 4.59833 0.636711 5.25673L3.43671 11.5217C3.50024 11.6732 3.53296 11.8358 3.53296 12.0001C3.53296 12.1643 3.50024 12.3269 3.43671 12.4784L0.636711 18.7434C0.399528 19.2762 0.299259 19.8599 0.345018 20.4413C0.390776 21.0228 0.58111 21.5836 0.898723 22.0727C1.21634 22.5619 1.65116 22.9639 2.16367 23.2423C2.67618 23.5207 3.25014 23.6666 3.83338 23.6667C4.37965 23.6613 4.91778 23.5337 5.40838 23.2934L21.7417 15.1267C22.3211 14.8353 22.8081 14.3886 23.1483 13.8365C23.4886 13.2844 23.6688 12.6486 23.6688 12.0001C23.6688 11.3515 23.4886 10.7157 23.1483 10.1636C22.8081 9.61155 22.3211 9.16485 21.7417 8.8734H21.73ZM20.6917 13.0384L4.35838 21.2051C4.1439 21.3081 3.90306 21.343 3.66816 21.3052C3.43326 21.2674 3.21552 21.1588 3.04414 20.9937C2.87276 20.8287 2.75594 20.6152 2.70933 20.3819C2.66272 20.1486 2.68856 19.9066 2.78338 19.6884L5.57171 13.4234C5.60781 13.3397 5.63897 13.254 5.66504 13.1667H13.7034C14.0128 13.1667 14.3095 13.0438 14.5283 12.825C14.7471 12.6062 14.87 12.3095 14.87 12.0001C14.87 11.6907 14.7471 11.3939 14.5283 11.1751C14.3095 10.9563 14.0128 10.8334 13.7034 10.8334H5.66504C5.63897 10.7461 5.60781 10.6604 5.57171 10.5767L2.78338 4.31174C2.68856 4.09353 2.66272 3.85154 2.70933 3.61823C2.75594 3.38492 2.87276 3.17144 3.04414 3.00641C3.21552 2.84138 3.43326 2.73269 3.66816 2.69491C3.90306 2.65714 4.1439 2.69209 4.35838 2.79507L20.6917 10.9617C20.8828 11.0596 21.0432 11.2084 21.1552 11.3916C21.2672 11.5748 21.3264 11.7853 21.3264 12.0001C21.3264 12.2148 21.2672 12.4253 21.1552 12.6086C21.0432 12.7918 20.8828 12.9405 20.6917 13.0384Z" fill="#9BEC00"/>
</svg>
