<svg width="16" height="20" viewBox="0 0 16 20" fill="none" xmlns="http://www.w3.org/2000/svg">
<path d="M14.1875 2.4375H12.125V1.75C12.125 1.38533 11.9801 1.03559 11.7223 0.777728C11.4644 0.519866 11.1147 0.375 10.75 0.375H5.25C4.88533 0.375 4.53559 0.519866 4.27773 0.777728C4.01987 1.03559 3.875 1.38533 3.875 1.75V2.4375H1.8125C1.44783 2.4375 1.09809 2.58237 0.840228 2.84023C0.582366 3.09809 0.4375 3.44783 0.4375 3.8125V18.25C0.4375 18.6147 0.582366 18.9644 0.840228 19.2223C1.09809 19.4801 1.44783 19.625 1.8125 19.625H14.1875C14.5522 19.625 14.9019 19.4801 15.1598 19.2223C15.4176 18.9644 15.5625 18.6147 15.5625 18.25V3.8125C15.5625 3.44783 15.4176 3.09809 15.1598 2.84023C14.9019 2.58237 14.5522 2.4375 14.1875 2.4375ZM5.25 1.75H10.75V4.5H5.25V1.75ZM14.1875 18.25H1.8125V3.8125H3.875V5.875H12.125V3.8125H14.1875V18.25Z" fill="black"/>
</svg>
