<svg width="24" height="24" viewBox="0 0 24 24" fill="none" xmlns="http://www.w3.org/2000/svg">
<path d="M10.5815 2.25882C9.54758 2.25882 8.556 2.67529 7.8249 3.41661C7.09379 4.15793 6.68306 5.16338 6.68306 6.21176C6.68306 7.26015 7.09379 8.2656 7.8249 9.00692C8.556 9.74824 9.54758 10.1647 10.5815 10.1647C11.6155 10.1647 12.607 9.74824 13.3381 9.00692C14.0692 8.2656 14.48 7.26015 14.48 6.21176C14.48 5.16338 14.0692 4.15793 13.3381 3.41661C12.607 2.67529 11.6155 2.25882 10.5815 2.25882ZM4.45538 6.21176C4.45538 4.5643 5.10081 2.98432 6.24968 1.81938C7.39856 0.654452 8.95676 0 10.5815 0C12.2063 0 13.7645 0.654452 14.9134 1.81938C16.0622 2.98432 16.7077 4.5643 16.7077 6.21176C16.7077 7.85923 16.0622 9.43921 14.9134 10.6041C13.7645 11.7691 12.2063 12.4235 10.5815 12.4235C8.95676 12.4235 7.39856 11.7691 6.24968 10.6041C5.10081 9.43921 4.45538 7.85923 4.45538 6.21176ZM6.68306 15.8118C5.50143 15.8118 4.36818 16.2877 3.53264 17.135C2.69709 17.9822 2.22769 19.1313 2.22769 20.3294H11.1941V22.5882H0V20.3294C0 18.5322 0.704107 16.8086 1.95742 15.5377C3.21074 14.2669 4.91061 13.5529 6.68306 13.5529H11.1384V15.8118H6.68306ZM19.4923 12.1412V13.6952C20.2887 13.9031 20.9982 14.3277 21.5573 14.906L22.8862 14.1278L24 16.084L22.6723 16.861C22.8892 17.6524 22.8892 18.4888 22.6723 19.2802L24 20.0572L22.8862 22.0134L21.5573 21.2352C20.9903 21.8216 20.2764 22.2402 19.4923 22.4459V24H17.2646V22.4459C16.4805 22.2402 15.7665 21.8216 15.1995 21.2352L13.8707 22.0134L12.7569 20.0572L14.0846 19.2802C13.8677 18.4888 13.8677 17.6524 14.0846 16.861L12.7569 16.084L13.8707 14.1278L15.1995 14.9048C15.7667 14.3189 16.4806 13.9007 17.2646 13.6952V12.1412H19.4923ZM16.4281 16.9784C16.2457 17.3128 16.1499 17.6885 16.1496 18.0706C16.1496 18.4659 16.251 18.8386 16.4281 19.1627L16.4682 19.2339C16.6661 19.5684 16.9461 19.8452 17.2808 20.0374C17.6156 20.2296 17.9937 20.3306 18.3784 20.3306C18.7631 20.3306 19.1413 20.2296 19.476 20.0374C19.8108 19.8452 20.0908 19.5684 20.2887 19.2339L20.3288 19.1627C20.5059 18.8386 20.6061 18.467 20.6061 18.0706C20.6061 17.6753 20.5059 17.3026 20.3288 16.9784L20.2887 16.9073C20.0908 16.5728 19.8108 16.296 19.476 16.1038C19.1413 15.9116 18.7631 15.8106 18.3784 15.8106C17.9937 15.8106 17.6156 15.9116 17.2808 16.1038C16.9461 16.296 16.6661 16.5728 16.4682 16.9073L16.4281 16.9784Z" fill="#9BEC00"/>
</svg>
